<svg xmlns="http://www.w3.org/2000/svg" viewBox="-1.89634 8.58001 28.97 34.51">
    <rect x="-1.89634" y="8.58001" width="28.97" height="34.51" fill="#ffffff"/>
    <path d="M15.04 11.64c-.6 4.04-1.4 8.04-2.24 12.08-1.24 6-1.96 11.92-4.76 15.52-1.36 1.76-4 2.72-5.84 2.04-.4-.12-.68-.48-.88-1-.48 0-.96-.08-1.4-.24-1.52-.56-2.08-3.72-1.48-6.64 2.2.28 4.52-.4 5.12-1.64 1.4-2.92 2.72-10.04 3.36-15.08.72-5.64-.2-7.28 7.08-7.92-.16 1.08-.32 2.12-.52 3.08.52-.08 1.04-.12 1.56-.2zM12.8 9.88c-1.52.16-3.08.44-4.04 1.56-.2.24-.36 1.04-.48 2.12-.12 1-.24 2.24-.36 3.24-.64 5.04-1.96 12.28-3.44 15.4-.88 1.76-3.6 2.44-5.24 2.28-.32 1.88-.04 4.24 1.04 4.6 1.76.64 4.28-.28 5.6-1.96 1.36-1.76 2.24-4.12 2.92-6.8s1.2-5.64 1.8-8.64c.84-3.92 1.6-7.84 2.2-11.8zM26.071 18.44c-2.88 1.64-5.16 3.48-6.56 6.48-1.4 2.92-2.52 6.48-1.72 9.72 1.24.76 3.08-.2 4.4-.64.32 1.16.36 2.36.12 3.48.52-.16 1-.36 1.32-.44.4 1.28 0 3.24-1.12 4.56-.84 1-2.08 1.52-3.52 1.36-1.04-.08-2-.6-2.76-1.32-2.2-.52-3.88-2.48-4.48-4.44-1.6-5.16-.84-10.52.84-15.28 1.76-4.84 6.92-10.88 11.4-13.24.56.72 1.04 1.96 1.36 3.28.12-.08.28-.16.44-.24.84 1.12 2.04 5.72.28 6.72zM23.991 16.28c1.48-.88.56-4.96-.28-6.32-3.64 2-8.52 7.72-10.16 12.32-1.68 4.6-2.36 9.76-.84 14.64.6 1.88 2.28 3.64 4.28 3.84 1.4.16 2.56-.36 3.36-1.28 1.04-1.24 1.4-2.96 1.16-4.2-.84.32-1.68.64-2.56.64-1.12.04-2.28-.4-2.92-2-1.52-3.64-.28-7.8 1.28-11.08 1.48-3.08 3.76-4.92 6.68-6.56z" stroke="#000" stroke-width="0.1" fill=""/>
</svg>