  <svg id="8rznenAvE" viewBox="0 0 140 138" height="138" width="140"
       style="width: 140px; height: 138px; position: absolute; top: 50%; left: 50%; transform: translate(-50%, -50%) scale(0.68); z-index: 0; cursor: pointer; overflow: visible;">
    <defs id="SvgjsDefs1001"></defs>
    <g id="SvgjsG1007" featurekey="rootContainer" transform="matrix(1,0,0,1,0,0)" fill="#111111">
      <rect xmlns="http://www.w3.org/2000/svg" width="140" height="138" rx="10" ry="10"></rect>
    </g>
    <g id="SvgjsG1008" featurekey="q4o0QG-0"
       transform="matrix(6.527416086296831,0,0,6.527416086296831,17.911223202961718,-13.550933374634326)"
       fill="#ffffff">
      <path
        d="M3.04 5.279999999999999 l3.76 0 l0.38 12.42 l-0.16 1.62 l-0.48 0.78 l-5.16 0 l-0.66 -0.32 l-0.4 -0.98 l0.2 -5.34 l3.16 -0.08 l0 3.96 l0.32 0.24 l0.54 -0.04 l0.36 -9.38 l-0.64 0.12 l-2.88 -0.22 l-0.12 -1.9 l0.14 -1.02 z M13.879999999999999 12.6 l0 -4.04 l-2.42 0.04 c0 0.5 -0.16 1.4 -0.18 2.2 c0 0.46 -0.02 0.96 -0.06 1.48 l-0.12 1.74 l0 2.04 l0.2 1.16 l1.96 0.12 l0.42 -0.3 l0.12 -2.32 l0.36 0.04 l1.26 -0.04 l0.14 0.72 l-0.06 3 l0 1 l-1.24 0.52 l-0.38 0.06 l-0.34 0.04 l-3.02 -0.12 l-1.72 -0.64 l-0.64 -3.18 l0.24 -3 l0.18 -3.28 l0 -2.6 l0.74 -1.4 l0.68 -0.58 l2.32 0.06 l2.02 0 l1.22 0.54 l0.08 6.64 c-0.32 0.04 -1.44 0.1 -1.76 0.1 z"></path>
    </g>
  </svg>